<mxfile host="65bd71144e">
    <diagram name="Page-1" id="2YBvvXClWsGukQMizWep">
        <mxGraphModel dx="1091" dy="259" grid="1" gridSize="10" guides="1" tooltips="1" connect="1" arrows="1" fold="1" page="1" pageScale="1" pageWidth="850" pageHeight="1100" math="0" shadow="0">
            <root>
                <mxCell id="0"/>
                <mxCell id="1" parent="0"/>
                <mxCell id="X2KOND9opAUOhxfHvLII-1" value="" style="whiteSpace=wrap;html=1;aspect=fixed;" parent="1" vertex="1">
                    <mxGeometry x="-490" y="210" width="230" height="230" as="geometry"/>
                </mxCell>
                <mxCell id="X2KOND9opAUOhxfHvLII-2" value="" style="rounded=0;whiteSpace=wrap;html=1;" parent="1" vertex="1">
                    <mxGeometry x="-480" y="220" width="20" height="30" as="geometry"/>
                </mxCell>
                <mxCell id="X2KOND9opAUOhxfHvLII-3" value="" style="rounded=0;whiteSpace=wrap;html=1;" parent="1" vertex="1">
                    <mxGeometry x="-450" y="220" width="20" height="30" as="geometry"/>
                </mxCell>
                <mxCell id="X2KOND9opAUOhxfHvLII-4" value="" style="rounded=0;whiteSpace=wrap;html=1;" parent="1" vertex="1">
                    <mxGeometry x="-420" y="220" width="20" height="30" as="geometry"/>
                </mxCell>
                <mxCell id="X2KOND9opAUOhxfHvLII-5" value="" style="rounded=0;whiteSpace=wrap;html=1;" parent="1" vertex="1">
                    <mxGeometry x="-390" y="220" width="20" height="30" as="geometry"/>
                </mxCell>
                <mxCell id="X2KOND9opAUOhxfHvLII-6" value="" style="rounded=0;whiteSpace=wrap;html=1;" parent="1" vertex="1">
                    <mxGeometry x="-360" y="220" width="20" height="30" as="geometry"/>
                </mxCell>
                <mxCell id="X2KOND9opAUOhxfHvLII-7" value="" style="rounded=0;whiteSpace=wrap;html=1;" parent="1" vertex="1">
                    <mxGeometry x="-330" y="220" width="20" height="30" as="geometry"/>
                </mxCell>
                <mxCell id="X2KOND9opAUOhxfHvLII-8" value="" style="rounded=0;whiteSpace=wrap;html=1;" parent="1" vertex="1">
                    <mxGeometry x="-300" y="220" width="20" height="30" as="geometry"/>
                </mxCell>
                <mxCell id="X2KOND9opAUOhxfHvLII-9" value="" style="rounded=0;whiteSpace=wrap;html=1;" parent="1" vertex="1">
                    <mxGeometry x="-410" y="260" width="20" height="30" as="geometry"/>
                </mxCell>
                <mxCell id="X2KOND9opAUOhxfHvLII-10" value="" style="rounded=0;whiteSpace=wrap;html=1;" parent="1" vertex="1">
                    <mxGeometry x="-380" y="260" width="20" height="30" as="geometry"/>
                </mxCell>
                <mxCell id="X2KOND9opAUOhxfHvLII-11" value="&lt;font style=&quot;font-size: 23px;&quot;&gt;Table&lt;/font&gt;" style="text;html=1;strokeColor=none;fillColor=none;align=center;verticalAlign=middle;whiteSpace=wrap;rounded=0;" parent="1" vertex="1">
                    <mxGeometry x="-410" y="310" width="60" height="30" as="geometry"/>
                </mxCell>
                <mxCell id="X2KOND9opAUOhxfHvLII-23" value="" style="rounded=0;whiteSpace=wrap;html=1;" parent="1" vertex="1">
                    <mxGeometry x="-390" y="390" width="20" height="30" as="geometry"/>
                </mxCell>
                <mxCell id="X2KOND9opAUOhxfHvLII-24" value="&lt;font style=&quot;font-size: 16px;&quot;&gt;Max Player cards = 9&lt;/font&gt;" style="text;html=1;strokeColor=none;fillColor=none;align=center;verticalAlign=middle;whiteSpace=wrap;rounded=0;fontSize=23;" parent="1" vertex="1">
                    <mxGeometry x="-465" y="180" width="170" height="30" as="geometry"/>
                </mxCell>
                <mxCell id="X2KOND9opAUOhxfHvLII-26" value="" style="shape=trapezoid;perimeter=trapezoidPerimeter;whiteSpace=wrap;html=1;fixedSize=1;fontSize=16;rotation=90;" parent="1" vertex="1">
                    <mxGeometry x="-190" y="305" width="65" height="40" as="geometry"/>
                </mxCell>
                <mxCell id="X2KOND9opAUOhxfHvLII-27" value="" style="endArrow=none;html=1;rounded=0;fontSize=16;" parent="1" edge="1">
                    <mxGeometry width="50" height="50" relative="1" as="geometry">
                        <mxPoint x="-180" y="324.5" as="sourcePoint"/>
                        <mxPoint x="-230" y="325" as="targetPoint"/>
                    </mxGeometry>
                </mxCell>
                <mxCell id="gBoeMdqCxDdfw_b6q8Ny-1" value="&lt;font style=&quot;font-size: 18px;&quot;&gt;Dealer shows one card&lt;/font&gt;" style="text;html=1;strokeColor=none;fillColor=none;align=center;verticalAlign=middle;whiteSpace=wrap;rounded=0;" parent="1" vertex="1">
                    <mxGeometry x="-475" y="450" width="195" height="30" as="geometry"/>
                </mxCell>
                <mxCell id="gBoeMdqCxDdfw_b6q8Ny-2" value="" style="endArrow=none;html=1;rounded=0;fontSize=18;" parent="1" edge="1">
                    <mxGeometry width="50" height="50" relative="1" as="geometry">
                        <mxPoint x="-220" y="370" as="sourcePoint"/>
                        <mxPoint x="-180" y="345" as="targetPoint"/>
                    </mxGeometry>
                </mxCell>
                <mxCell id="gBoeMdqCxDdfw_b6q8Ny-3" value="" style="endArrow=none;html=1;rounded=0;fontSize=18;" parent="1" edge="1">
                    <mxGeometry width="50" height="50" relative="1" as="geometry">
                        <mxPoint x="-180" y="305" as="sourcePoint"/>
                        <mxPoint x="-220" y="280" as="targetPoint"/>
                    </mxGeometry>
                </mxCell>
                <mxCell id="gBoeMdqCxDdfw_b6q8Ny-5" value="" style="endArrow=classic;startArrow=classic;html=1;rounded=0;fontSize=18;" parent="1" target="gBoeMdqCxDdfw_b6q8Ny-6" edge="1">
                    <mxGeometry width="50" height="50" relative="1" as="geometry">
                        <mxPoint x="-250" y="260" as="sourcePoint"/>
                        <mxPoint x="-50" y="370" as="targetPoint"/>
                        <Array as="points">
                            <mxPoint x="-80" y="260"/>
                            <mxPoint x="-80" y="330"/>
                            <mxPoint x="-80" y="370"/>
                        </Array>
                    </mxGeometry>
                </mxCell>
                <mxCell id="gBoeMdqCxDdfw_b6q8Ny-6" value="" style="rhombus;whiteSpace=wrap;html=1;fontSize=18;" parent="1" vertex="1">
                    <mxGeometry x="-60" y="300" width="190" height="140" as="geometry"/>
                </mxCell>
                <mxCell id="gBoeMdqCxDdfw_b6q8Ny-7" value="Card Recognition" style="text;html=1;strokeColor=none;fillColor=none;align=center;verticalAlign=middle;whiteSpace=wrap;rounded=0;fontSize=18;" parent="1" vertex="1">
                    <mxGeometry y="345" width="60" height="30" as="geometry"/>
                </mxCell>
                <mxCell id="gBoeMdqCxDdfw_b6q8Ny-8" value="" style="endArrow=none;html=1;rounded=0;fontSize=18;" parent="1" edge="1">
                    <mxGeometry width="50" height="50" relative="1" as="geometry">
                        <mxPoint x="-140" y="324.5" as="sourcePoint"/>
                        <mxPoint x="-80" y="324.5" as="targetPoint"/>
                    </mxGeometry>
                </mxCell>
                <mxCell id="gBoeMdqCxDdfw_b6q8Ny-9" value="&lt;font style=&quot;font-size: 9px;&quot;&gt;Camera&lt;/font&gt;" style="text;html=1;strokeColor=none;fillColor=none;align=center;verticalAlign=middle;whiteSpace=wrap;rounded=0;fontSize=18;" parent="1" vertex="1">
                    <mxGeometry x="-190" y="305" width="60" height="30" as="geometry"/>
                </mxCell>
                <mxCell id="gBoeMdqCxDdfw_b6q8Ny-10" value="" style="endArrow=classic;html=1;rounded=0;fontSize=9;" parent="1" target="gBoeMdqCxDdfw_b6q8Ny-11" edge="1">
                    <mxGeometry width="50" height="50" relative="1" as="geometry">
                        <mxPoint x="130" y="370" as="sourcePoint"/>
                        <mxPoint x="260" y="370" as="targetPoint"/>
                    </mxGeometry>
                </mxCell>
                <mxCell id="gBoeMdqCxDdfw_b6q8Ny-11" value="" style="ellipse;whiteSpace=wrap;html=1;aspect=fixed;fontSize=9;" parent="1" vertex="1">
                    <mxGeometry x="250" y="295" width="150" height="150" as="geometry"/>
                </mxCell>
                <mxCell id="gBoeMdqCxDdfw_b6q8Ny-12" value="&lt;font style=&quot;font-size: 18px;&quot;&gt;Strategy Engine&lt;/font&gt;" style="text;html=1;strokeColor=none;fillColor=none;align=center;verticalAlign=middle;whiteSpace=wrap;rounded=0;fontSize=9;" parent="1" vertex="1">
                    <mxGeometry x="295" y="355" width="60" height="30" as="geometry"/>
                </mxCell>
                <mxCell id="gBoeMdqCxDdfw_b6q8Ny-13" value="&lt;font style=&quot;font-size: 11px;&quot;&gt;Dealer C1&lt;/font&gt;" style="text;html=1;strokeColor=none;fillColor=none;align=center;verticalAlign=middle;whiteSpace=wrap;rounded=0;fontSize=18;" parent="1" vertex="1">
                    <mxGeometry x="150" y="335" width="60" height="30" as="geometry"/>
                </mxCell>
                <mxCell id="gBoeMdqCxDdfw_b6q8Ny-14" value="Player C1 ... Player C9" style="text;html=1;strokeColor=none;fillColor=none;align=center;verticalAlign=middle;whiteSpace=wrap;rounded=0;fontSize=11;" parent="1" vertex="1">
                    <mxGeometry x="120" y="375" width="130" height="30" as="geometry"/>
                </mxCell>
                <mxCell id="gBoeMdqCxDdfw_b6q8Ny-15" value="" style="endArrow=classic;html=1;rounded=0;fontSize=11;" parent="1" target="gBoeMdqCxDdfw_b6q8Ny-16" edge="1">
                    <mxGeometry width="50" height="50" relative="1" as="geometry">
                        <mxPoint x="330" y="295" as="sourcePoint"/>
                        <mxPoint x="250" y="180" as="targetPoint"/>
                        <Array as="points">
                            <mxPoint x="330" y="180"/>
                        </Array>
                    </mxGeometry>
                </mxCell>
                <mxCell id="gBoeMdqCxDdfw_b6q8Ny-16" value="" style="ellipse;whiteSpace=wrap;html=1;aspect=fixed;fontSize=11;" parent="1" vertex="1">
                    <mxGeometry x="140" y="100" width="150" height="150" as="geometry"/>
                </mxCell>
                <mxCell id="2" style="edgeStyle=none;html=1;exitX=1;exitY=1;exitDx=0;exitDy=0;entryX=0.733;entryY=0.6;entryDx=0;entryDy=0;entryPerimeter=0;" edge="1" parent="1" source="gBoeMdqCxDdfw_b6q8Ny-17" target="gBoeMdqCxDdfw_b6q8Ny-16">
                    <mxGeometry relative="1" as="geometry"/>
                </mxCell>
                <mxCell id="gBoeMdqCxDdfw_b6q8Ny-17" value="&lt;span style=&quot;font-size: 19px;&quot;&gt;LED Flasher&lt;/span&gt;" style="text;html=1;strokeColor=none;fillColor=none;align=center;verticalAlign=middle;whiteSpace=wrap;rounded=0;fontSize=11;" parent="1" vertex="1">
                    <mxGeometry x="185" y="160" width="60" height="30" as="geometry"/>
                </mxCell>
                <mxCell id="gBoeMdqCxDdfw_b6q8Ny-18" value="&lt;font style=&quot;font-size: 13px;&quot;&gt;Hit&lt;br&gt;Stand&lt;br&gt;Split&lt;br&gt;Double&lt;/font&gt;" style="text;html=1;strokeColor=none;fillColor=none;align=center;verticalAlign=middle;whiteSpace=wrap;rounded=0;fontSize=19;" parent="1" vertex="1">
                    <mxGeometry x="330" y="200" width="60" height="80" as="geometry"/>
                </mxCell>
                <mxCell id="gBoeMdqCxDdfw_b6q8Ny-19" value="" style="endArrow=classic;html=1;rounded=0;fontSize=13;" parent="1" edge="1">
                    <mxGeometry width="50" height="50" relative="1" as="geometry">
                        <mxPoint x="135" y="180" as="sourcePoint"/>
                        <mxPoint x="-50" y="80" as="targetPoint"/>
                        <Array as="points">
                            <mxPoint x="50" y="180"/>
                            <mxPoint x="50" y="80"/>
                        </Array>
                    </mxGeometry>
                </mxCell>
                <mxCell id="gBoeMdqCxDdfw_b6q8Ny-20" value="" style="whiteSpace=wrap;html=1;aspect=fixed;fontSize=13;" parent="1" vertex="1">
                    <mxGeometry x="-140" y="30" width="90" height="90" as="geometry"/>
                </mxCell>
                <mxCell id="gBoeMdqCxDdfw_b6q8Ny-21" value="Display Device" style="text;html=1;strokeColor=none;fillColor=none;align=center;verticalAlign=middle;whiteSpace=wrap;rounded=0;fontSize=13;" parent="1" vertex="1">
                    <mxGeometry x="-125" y="60" width="60" height="30" as="geometry"/>
                </mxCell>
                <mxCell id="gBoeMdqCxDdfw_b6q8Ny-22" value="Flash 1&lt;br&gt;Flash 2&lt;br&gt;Solid on&lt;br&gt;Solid off" style="text;html=1;strokeColor=none;fillColor=none;align=center;verticalAlign=middle;whiteSpace=wrap;rounded=0;fontSize=13;" parent="1" vertex="1">
                    <mxGeometry x="50" y="90" width="60" height="80" as="geometry"/>
                </mxCell>
            </root>
        </mxGraphModel>
    </diagram>
</mxfile>